<?xml version="1.0" encoding="utf-8"?>
<!-- Generator: Adobe Illustrator 24.3.0, SVG Export Plug-In . SVG Version: 6.00 Build 0)  -->
<svg version="1.1" id="Layer_1" xmlns="http://www.w3.org/2000/svg" xmlns:xlink="http://www.w3.org/1999/xlink" x="0px" y="0px"
	 viewBox="0 0 2119.4 1079" style="enable-background:new 0 0 2119.4 1079;" xml:space="preserve">
<style type="text/css">
	.st0{display:none;fill:#C2C4C6;stroke:#231F20;stroke-width:6;stroke-miterlimit:10;}
	.st1{fill:#407AFC;}
	.st2{fill:none;stroke:#231F20;stroke-width:7;stroke-miterlimit:10;}
	.st3{fill:#231F20;}
	.st4{fill:#353535;}
	.st5{fill:none;}
	.st6{fill:#FFFFFF;}
	.st7{fill:#FFFFFF;stroke:#000000;stroke-width:5;stroke-miterlimit:10;}
</style>
<rect class="st0" width="2119.4" height="1080.3"/>
<g id="_20">
	<path class="st1" d="M928.3,674.8H963c14.4,0,26,11.6,26,26v34.7c0,14.4-11.6,26-26,26h-34.7c-14.4,0-26-11.6-26-26v-34.7
		C902.3,686.4,914,674.8,928.3,674.8z"/>
</g>
<g id="_19">
	<path class="st1" d="M928.1,780.4h34.7c14.4,0,26,11.6,26,26v34.7c0,14.4-11.6,26-26,26h-34.7c-14.4,0-26-11.6-26-26v-34.7
		C902.1,792,913.8,780.4,928.1,780.4z"/>
</g>
<g id="_18">
	<path class="st1" d="M924.5,967.9h34.7c14.4,0,26,11.6,26,26v34.7c0,14.4-11.6,26-26,26h-34.7c-14.4,0-26-11.6-26-26v-34.7
		C898.5,979.5,910.2,967.9,924.5,967.9z"/>
</g>
<g id="_17">
	<path class="st1" d="M1943.3,626.9h34.7c14.4,0,26,11.6,26,26v34.7c0,14.4-11.6,26-26,26h-34.7c-14.4,0-26-11.6-26-26v-34.7
		C1917.3,638.5,1929,626.9,1943.3,626.9z"/>
</g>
<g id="_16">
	<path class="st1" d="M1973.4,969.4h34.7c14.4,0,26,11.6,26,26v34.7c0,14.4-11.6,26-26,26h-34.7c-14.4,0-26-11.6-26-26v-34.7
		C1947.4,981.1,1959,969.4,1973.4,969.4z"/>
</g>
<g id="_15">
	<path class="st1" d="M2041.1,868.7h34.7c14.4,0,26,11.6,26,26v34.7c0,14.4-11.6,26-26,26h-34.7c-14.4,0-26-11.6-26-26v-34.7
		C2015.1,880.3,2026.8,868.7,2041.1,868.7z"/>
</g>
<g id="_14">
	<path class="st1" d="M2041.1,685.8h34.7c14.4,0,26,11.6,26,26v34.7c0,14.4-11.6,26-26,26h-34.7c-14.4,0-26-11.6-26-26v-34.7
		C2015.1,697.4,2026.8,685.8,2041.1,685.8z"/>
</g>
<g id="_13">
	<path class="st1" d="M2041.1,580.3h34.7c14.4,0,26,11.6,26,26V641c0,14.4-11.6,26-26,26h-34.7c-14.4,0-26-11.6-26-26v-34.7
		C2015.1,591.9,2026.8,580.3,2041.1,580.3z"/>
</g>
<g id="_12">
	<path class="st1" d="M812.8,967.9h34.7c14.4,0,26,11.6,26,26v34.7c0,14.4-11.6,26-26,26h-34.7c-14.4,0-26-11.6-26-26v-34.7
		C786.8,979.5,798.4,967.9,812.8,967.9z"/>
</g>
<g id="_11">
	<path class="st1" d="M816.3,780.4H851c14.4,0,26,11.6,26,26v34.7c0,14.4-11.6,26-26,26h-34.7c-14.4,0-26-11.6-26-26v-34.7
		C790.3,792,802,780.4,816.3,780.4z"/>
</g>
<g id="_10">
	<path class="st1" d="M816.6,674.8h34.7c14.4,0,26,11.6,26,26v34.7c0,14.4-11.6,26-26,26h-34.7c-14.4,0-26-11.6-26-26v-34.7
		C790.6,686.4,802.2,674.8,816.6,674.8z"/>
</g>
<g id="_9">
	<path class="st1" d="M1197.5,967.9h34.7c14.4,0,26,11.6,26,26v34.7c0,14.4-11.6,26-26,26h-34.7c-14.4,0-26-11.6-26-26v-34.7
		C1171.5,979.5,1183.1,967.9,1197.5,967.9z"/>
</g>
<g id="_8">
	<path class="st1" d="M1197.5,780.4h34.7c14.4,0,26,11.6,26,26v34.7c0,14.4-11.6,26-26,26h-34.7c-14.4,0-26-11.6-26-26v-34.7
		C1171.5,792,1183.1,780.4,1197.5,780.4z"/>
</g>
<g id="_7">
	<path class="st1" d="M1306.5,967.9h34.7c14.4,0,26,11.6,26,26v34.7c0,14.4-11.6,26-26,26h-34.7c-14.4,0-26-11.6-26-26v-34.7
		C1280.5,979.5,1292.1,967.9,1306.5,967.9z"/>
</g>
<g id="_6">
	<path class="st1" d="M1306.5,780.4h34.7c14.4,0,26,11.6,26,26v34.7c0,14.4-11.6,26-26,26h-34.7c-14.4,0-26-11.6-26-26v-34.7
		C1280.5,792,1292.1,780.4,1306.5,780.4z"/>
</g>
<g id="_5">
	<path class="st1" d="M1577.5,967.9h34.7c14.4,0,26,11.6,26,26v34.7c0,14.4-11.6,26-26,26h-34.7c-14.4,0-26-11.6-26-26v-34.7
		C1551.5,979.5,1563.1,967.9,1577.5,967.9z"/>
</g>
<g id="_4">
	<path class="st1" d="M1578.6,779.9h34.7c14.4,0,26,11.6,26,26v34.7c0,14.4-11.6,26-26,26h-34.7c-14.4,0-26-11.6-26-26v-34.7
		C1552.6,791.6,1564.2,779.9,1578.6,779.9z"/>
</g>
<g id="_3">
	<path class="st1" d="M1688.4,967.9h34.7c14.4,0,26,11.6,26,26v34.7c0,14.4-11.6,26-26,26h-34.7c-14.4,0-26-11.6-26-26v-34.7
		C1662.4,979.5,1674,967.9,1688.4,967.9z"/>
</g>
<g id="_2">
	<path class="st1" d="M1689.8,779.7h34.7c14.4,0,26,11.6,26,26v34.7c0,14.4-11.6,26-26,26h-34.7c-14.4,0-26-11.6-26-26v-34.7
		C1663.8,791.3,1675.4,779.7,1689.8,779.7z"/>
</g>
<g id="_1">
	<path class="st1" d="M1631.6,678.3h34.7c14.4,0,26,11.6,26,26V739c0,14.4-11.6,26-26,26h-34.7c-14.4,0-26-11.6-26-26v-34.7
		C1605.6,690,1617.3,678.3,1631.6,678.3z"/>
</g>
<rect x="199.4" class="st2" width="1379.4" height="217.7"/>
<rect class="st2" width="199.4" height="765"/>
<rect x="1578.8" class="st2" width="540.6" height="457.3"/>
<rect y="765" class="st2" width="321" height="314"/>
<rect x="561" y="217.7" class="st3" width="96.8" height="188.8"/>
<rect x="657.8" y="217.7" class="st3" width="287.9" height="84.3"/>
<rect x="1171.5" y="678.3" class="st4" width="195.7" height="83.2"/>
<rect x="1367.2" y="457.3" class="st4" width="211.6" height="82.2"/>
<rect x="945.7" y="457.3" class="st4" width="211.6" height="82.2"/>
<rect x="321" y="922.1" class="st4" width="82.2" height="158.2"/>
<path class="st5" d="M1420.8,468.3h60.1v60.1h-60.1V468.3z"/>
<path class="st6" d="M1449,485c-1.8,0.7-3.1,2.6-3.1,4.6v30.1c0,2.8,2.2,5,5,5h40.1c2.8,0,5-2.3,5-5v-30.1c0-2.8-2.2-5-5-5h-29.3
	l20.7-8.4l-1.7-4.2L1449,485z M1458.4,519.7c-4.2,0-7.5-3.4-7.5-7.5c0-4.2,3.4-7.5,7.5-7.5c4.2,0,7.5,3.4,7.5,7.5
	C1465.9,516.3,1462.6,519.7,1458.4,519.7z M1491,499.7h-5v-5h-5v5h-30.1v-10h40.1V499.7z"/>
<path class="st6" d="M1247.4,706.5c-1.8,0.7-3.1,2.6-3.1,4.6v30.1c0,2.8,2.2,5,5,5h40.1c2.8,0,5-2.3,5-5v-30.1c0-2.8-2.2-5-5-5
	h-29.3l20.7-8.4l-1.7-4.2L1247.4,706.5z M1256.8,741.2c-4.2,0-7.5-3.4-7.5-7.5c0-4.2,3.4-7.5,7.5-7.5c4.2,0,7.5,3.4,7.5,7.5
	C1264.3,737.9,1261,741.2,1256.8,741.2z M1289.4,721.2h-5v-5h-5v5h-30.1v-10h40.1V721.2z"/>
<path class="st6" d="M340.2,987.7c-1.8,0.7-3.1,2.6-3.1,4.6v30.1c0,2.8,2.2,5,5,5h40.1c2.8,0,5-2.3,5-5v-30.1c0-2.8-2.2-5-5-5h-29.3
	l20.7-8.4l-1.7-4.2L340.2,987.7z M349.6,1022.4c-4.2,0-7.5-3.4-7.5-7.5c0-4.2,3.4-7.5,7.5-7.5s7.5,3.4,7.5,7.5
	C357.1,1019.1,353.7,1022.4,349.6,1022.4z M382.2,1002.4h-5v-5h-5v5h-30.1v-10h40.1V1002.4z"/>
<path class="st5" d="M685,302.1h65.7v65.7H685V302.1z"/>
<path class="st6" d="M813.7,236.5h-43.8v27.4c0,6,4.9,10.9,10.9,10.9h16.4c6,0,10.9-4.9,10.9-10.9v-8.2h5.5c3,0,5.5-2.5,5.5-5.5V242
	C819.2,239,816.7,236.5,813.7,236.5z M813.7,250.2h-5.5V242h5.5V250.2z M769.9,280.3h43.8v5.5h-43.8V280.3z"/>
<path class="st5" d="M581.2,429.1h56.4v56.4h-56.4V429.1z"/>
<rect x="562.6" y="404.5" class="st7" width="94" height="80.9"/>
<path d="M623.8,421.5h-28.2c-2.6,0-4.7,2.1-4.7,4.7v37.6c0,2.6,2.1,4.7,4.7,4.7h28.2c2.6,0,4.7-2.1,4.7-4.7v-37.6
	C628.5,423.6,626.4,421.5,623.8,421.5z M623.8,463.8h-28.2v-21.2h28.2V463.8z M623.8,437.9h-28.2v-11.8h28.2V437.9z M600.3,428.5
	h4.7v7.1h-4.7V428.5z M600.3,445h4.7v11.8h-4.7V445z"/>
<rect x="481.2" y="661.8" class="st6" width="203.8" height="313"/>
</svg>
