<svg id="Layer_1" data-name="Layer 1"
  xmlns="http://www.w3.org/2000/svg" viewBox="0 0 1920 1079">
  <defs>
    <style>.cls-1{fill:#0056ff;}.cls-2{fill:#b3b3b3;}</style>
  </defs>
  <g id="_16" data-name="16">
    <rect class="cls-1" x="1732" y="832.44" width="86.71" height="86.71" rx="26"/>
  </g>
  <g id="_15" data-name="15">
    <rect class="cls-1" x="1732.29" y="726.91" width="86.71" height="86.71" rx="26"/>
  </g>
  <g id="_14" data-name="14">
    <rect class="cls-1" x="1732.52" y="621.33" width="86.71" height="86.71" rx="26"/>
  </g>
  <g id="_13" data-name="13">
    <rect class="cls-1" x="1732.82" y="515.81" width="86.71" height="86.71" rx="26"/>
  </g>
  <g id="_12" data-name="12">
    <rect class="cls-1" x="573.29" y="851.27" width="86.71" height="86.71" rx="26"/>
  </g>
  <g id="_11" data-name="11">
    <rect class="cls-1" x="573.58" y="623.74" width="86.71" height="86.71" rx="26"/>
  </g>
  <g id="_10" data-name="10">
    <rect class="cls-1" x="573.81" y="518.17" width="86.71" height="86.71" rx="26"/>
  </g>
  <g id="_9" data-name="9">
    <rect class="cls-1" x="871.93" y="851.35" width="86.71" height="86.71" rx="26"/>
  </g>
  <g id="_8" data-name="8">
    <rect class="cls-1" x="872.16" y="605.77" width="86.71" height="86.71" rx="26"/>
  </g>
  <g id="_7" data-name="7">
    <rect class="cls-1" x="980.93" y="851.35" width="86.71" height="86.71" rx="26"/>
  </g>
  <g id="_6" data-name="6">
    <rect class="cls-1" x="981.16" y="605.77" width="86.71" height="86.71" rx="26"/>
  </g>
  <g id="_5" data-name="5">
    <rect class="cls-1" x="1295.93" y="851.35" width="86.71" height="86.71" rx="26"/>
  </g>
  <g id="_4" data-name="4">
    <rect class="cls-1" x="1296.16" y="619.77" width="86.71" height="86.71" rx="26"/>
  </g>
  <g id="_3" data-name="3">
    <rect class="cls-1" x="1407.08" y="851.06" width="86.71" height="86.71" rx="26"/>
  </g>
  <g id="_2" data-name="2">
    <rect class="cls-1" x="1407.31" y="619.49" width="86.71" height="86.71" rx="26"/>
  </g>
  <g id="_1" data-name="1">
    <rect class="cls-1" x="1349.2" y="503.28" width="86.71" height="86.71" rx="26"/>
  </g>
  <rect class="cls-2" x="1014" width="306" height="145"/>
  <rect class="cls-2" x="667" width="122" height="43"/>
  <rect class="cls-2" x="1545" width="375" height="235"/>
  <rect class="cls-2" width="483" height="1079"/>
</svg>