<?xml version="1.0" encoding="utf-8"?>
<!-- Generator: Adobe Illustrator 24.0.3, SVG Export Plug-In . SVG Version: 6.00 Build 0)  -->
<svg version="1.1" id="Layer_1" data-name="ayer_1" xmlns="http://www.w3.org/2000/svg" xmlns:xlink="http://www.w3.org/1999/xlink" x="0px" y="0px"
	 viewBox="0 0 2119.4 1079" style="enable-background:new 0 0 2119.4 1079;" xml:space="preserve">
<style type="text/css">
	.st0{fill:#0056FF;}
	.st1{fill:#B3B3B3;}
</style>
<g id="_20" data-name="20">
	<path class="st0" d="M928.3,674.8h34.7c14.4,0,26,11.6,26,26v34.7c0,14.4-11.6,26-26,26h-34.7c-14.4,0-26-11.6-26-26v-34.7
		C902.3,686.4,914,674.8,928.3,674.8z"/>
</g>
<g id="_19" data-name="19">
	<path class="st0" d="M928.1,780.4h34.7c14.4,0,26,11.6,26,26v34.7c0,14.4-11.6,26-26,26h-34.7c-14.4,0-26-11.6-26-26v-34.7
		C902.1,792,913.8,780.4,928.1,780.4z"/>
</g>
<g id="_18" data-name="18">
	<path class="st0" d="M924.5,967.9h34.7c14.4,0,26,11.6,26,26v34.7c0,14.4-11.6,26-26,26h-34.7c-14.4,0-26-11.6-26-26v-34.7
		C898.5,979.5,910.2,967.9,924.5,967.9z"/>
</g>
<g id="_17" data-name="17">
	<path class="st0" d="M1943.3,626.9h34.7c14.4,0,26,11.6,26,26v34.7c0,14.4-11.6,26-26,26h-34.7c-14.4,0-26-11.6-26-26v-34.7
		C1917.3,638.5,1929,626.9,1943.3,626.9z"/>
</g>
<g id="_16" data-name="16">
	<path class="st0" d="M1973.4,969.4h34.7c14.4,0,26,11.6,26,26v34.7c0,14.4-11.6,26-26,26h-34.7c-14.4,0-26-11.6-26-26v-34.7
		C1947.4,981.1,1959,969.4,1973.4,969.4z"/>
</g>
<g id="_15" data-name="15">
	<path class="st0" d="M2041.1,868.7h34.7c14.4,0,26,11.6,26,26v34.7c0,14.4-11.6,26-26,26h-34.7c-14.4,0-26-11.6-26-26v-34.7
		C2015.1,880.3,2026.8,868.7,2041.1,868.7z"/>
</g>
<g id="_14" data-name="14">
	<path class="st0" d="M2041.1,685.8h34.7c14.4,0,26,11.6,26,26v34.7c0,14.4-11.6,26-26,26h-34.7c-14.4,0-26-11.6-26-26v-34.7
		C2015.1,697.4,2026.8,685.8,2041.1,685.8z"/>
</g>
<g id="_13" data-name="13">
	<path class="st0" d="M2041.1,580.3h34.7c14.4,0,26,11.6,26,26V641c0,14.4-11.6,26-26,26h-34.7c-14.4,0-26-11.6-26-26v-34.7
		C2015.1,591.9,2026.8,580.3,2041.1,580.3z"/>
</g>
<g id="_12" data-name="12">
	<path class="st0" d="M812.8,967.9h34.7c14.4,0,26,11.6,26,26v34.7c0,14.4-11.6,26-26,26h-34.7c-14.4,0-26-11.6-26-26v-34.7
		C786.8,979.5,798.4,967.9,812.8,967.9z"/>
</g>
<g id="_11" data-name="11">
	<path class="st0" d="M816.3,780.4H851c14.4,0,26,11.6,26,26v34.7c0,14.4-11.6,26-26,26h-34.7c-14.4,0-26-11.6-26-26v-34.7
		C790.3,792,802,780.4,816.3,780.4z"/>
</g>
<g id="_10" data-name="10">
	<path class="st0" d="M816.6,674.8h34.7c14.4,0,26,11.6,26,26v34.7c0,14.4-11.6,26-26,26h-34.7c-14.4,0-26-11.6-26-26v-34.7
		C790.6,686.4,802.2,674.8,816.6,674.8z"/>
</g>
<g id="_9" data-name="9">
	<path class="st0" d="M1197.5,967.9h34.7c14.4,0,26,11.6,26,26v34.7c0,14.4-11.6,26-26,26h-34.7c-14.4,0-26-11.6-26-26v-34.7
		C1171.5,979.5,1183.1,967.9,1197.5,967.9z"/>
</g>
<g id="_8" data-name="8">
	<path class="st0" d="M1197.5,780.4h34.7c14.4,0,26,11.6,26,26v34.7c0,14.4-11.6,26-26,26h-34.7c-14.4,0-26-11.6-26-26v-34.7
		C1171.5,792,1183.1,780.4,1197.5,780.4z"/>
</g>
<g id="_7" data-name="7">
	<path class="st0" d="M1306.5,967.9h34.7c14.4,0,26,11.6,26,26v34.7c0,14.4-11.6,26-26,26h-34.7c-14.4,0-26-11.6-26-26v-34.7
		C1280.5,979.5,1292.1,967.9,1306.5,967.9z"/>
</g>
<g id="_6" data-name="6">
	<path class="st0" d="M1306.5,780.4h34.7c14.4,0,26,11.6,26,26v34.7c0,14.4-11.6,26-26,26h-34.7c-14.4,0-26-11.6-26-26v-34.7
		C1280.5,792,1292.1,780.4,1306.5,780.4z"/>
</g>
<g id="_5" data-name="5">
	<path class="st0" d="M1577.5,967.9h34.7c14.4,0,26,11.6,26,26v34.7c0,14.4-11.6,26-26,26h-34.7c-14.4,0-26-11.6-26-26v-34.7
		C1551.5,979.5,1563.1,967.9,1577.5,967.9z"/>
</g>
<g id="_4" data-name="4">
	<path class="st0" d="M1578.6,779.9h34.7c14.4,0,26,11.6,26,26v34.7c0,14.4-11.6,26-26,26h-34.7c-14.4,0-26-11.6-26-26v-34.7
		C1552.6,791.6,1564.2,779.9,1578.6,779.9z"/>
</g>
<g id="_3" data-name="3">
	<path class="st0" d="M1688.4,967.9h34.7c14.4,0,26,11.6,26,26v34.7c0,14.4-11.6,26-26,26h-34.7c-14.4,0-26-11.6-26-26v-34.7
		C1662.4,979.5,1674,967.9,1688.4,967.9z"/>
</g>
<g id="_2" data-name="2">
	<path class="st0" d="M1689.8,779.7h34.7c14.4,0,26,11.6,26,26v34.7c0,14.4-11.6,26-26,26h-34.7c-14.4,0-26-11.6-26-26v-34.7
		C1663.8,791.3,1675.4,779.7,1689.8,779.7z"/>
</g>
<g id="_1" data-name="1">
	<path class="st0" d="M1631.6,678.3h34.7c14.4,0,26,11.6,26,26V739c0,14.4-11.6,26-26,26h-34.7c-14.4,0-26-11.6-26-26v-34.7
		C1605.6,690,1617.3,678.3,1631.6,678.3z"/>
</g>
<rect x="199.4" class="st1" width="1379.4" height="145"/>
<rect class="st1" width="199.4" height="457.3"/>
<rect x="1578.8" class="st1" width="540.6" height="457.3"/>
<rect y="457.3" class="st1" width="321" height="621.7"/>
<rect x="600.5" y="145" class="st1" width="96.8" height="258.4"/>
<rect x="697.3" y="145" class="st1" width="287.9" height="83.6"/>
<rect x="1171.5" y="678.3" class="st1" width="195.7" height="83.2"/>
<rect x="1367.2" y="457.3" class="st1" width="211.6" height="82.2"/>
<rect x="945.7" y="457.3" class="st1" width="211.6" height="82.2"/>
</svg>
