<svg id="Layer_1" data-name="Layer 1" xmlns="http://www.w3.org/2000/svg" viewBox="0 0 2126.4 1086"><defs><style>.cls-1{fill:#407afc;}.cls-2,.cls-5{fill:none;}.cls-2{stroke:#231f20;stroke-width:7px;}.cls-2,.cls-7{stroke-miterlimit:10;}.cls-3{fill:#231f20;}.cls-4{fill:#353535;}.cls-6,.cls-7{fill:#fff;}.cls-7{stroke:#000;stroke-width:5px;}</style></defs><g id="_20" data-name=" 20"><path class="cls-1" d="M928.3,674.8H963a26,26,0,0,1,26,26v34.7a26,26,0,0,1-26,26H928.3a26,26,0,0,1-26-26V700.8A26,26,0,0,1,928.3,674.8Z" transform="translate(3.5 3.5)"/></g><g id="_19" data-name=" 19"><path class="cls-1" d="M928.1,780.4h34.7a26,26,0,0,1,26,26v34.7a26,26,0,0,1-26,26H928.1a26,26,0,0,1-26-26V806.4A26,26,0,0,1,928.1,780.4Z" transform="translate(3.5 3.5)"/></g><g id="_18" data-name=" 18"><path class="cls-1" d="M924.5,967.9h34.7a26,26,0,0,1,26,26v34.7a26,26,0,0,1-26,26H924.5a26,26,0,0,1-26-26V993.9A26,26,0,0,1,924.5,967.9Z" transform="translate(3.5 3.5)"/></g><g id="_17" data-name=" 17"><path class="cls-1" d="M1943.3,626.9H1978a26,26,0,0,1,26,26v34.7a26,26,0,0,1-26,26h-34.7a26,26,0,0,1-26-26V652.9A26,26,0,0,1,1943.3,626.9Z" transform="translate(3.5 3.5)"/></g><g id="_16" data-name=" 16"><path class="cls-1" d="M1973.4,969.4h34.7a26,26,0,0,1,26,26v34.7a26,26,0,0,1-26,26h-34.7a26,26,0,0,1-26-26V995.4A26,26,0,0,1,1973.4,969.4Z" transform="translate(3.5 3.5)"/></g><g id="_15" data-name=" 15"><path class="cls-1" d="M2041.1,868.7h34.7a26,26,0,0,1,26,26v34.7a26,26,0,0,1-26,26h-34.7a26,26,0,0,1-26-26V894.7A26,26,0,0,1,2041.1,868.7Z" transform="translate(3.5 3.5)"/></g><g id="_14" data-name=" 14"><path class="cls-1" d="M2041.1,685.8h34.7a26,26,0,0,1,26,26v34.7a26,26,0,0,1-26,26h-34.7a26,26,0,0,1-26-26V711.8A26,26,0,0,1,2041.1,685.8Z" transform="translate(3.5 3.5)"/></g><g id="_13" data-name=" 13"><path class="cls-1" d="M2041.1,580.3h34.7a26,26,0,0,1,26,26V641a26,26,0,0,1-26,26h-34.7a26,26,0,0,1-26-26V606.3A26,26,0,0,1,2041.1,580.3Z" transform="translate(3.5 3.5)"/></g><g id="_12" data-name=" 12"><path class="cls-1" d="M812.8,967.9h34.7a26,26,0,0,1,26,26v34.7a26,26,0,0,1-26,26H812.8a26,26,0,0,1-26-26V993.9A26,26,0,0,1,812.8,967.9Z" transform="translate(3.5 3.5)"/></g><g id="_11" data-name=" 11"><path class="cls-1" d="M816.3,780.4H851a26,26,0,0,1,26,26v34.7a26,26,0,0,1-26,26H816.3a26,26,0,0,1-26-26V806.4A26,26,0,0,1,816.3,780.4Z" transform="translate(3.5 3.5)"/></g><g id="_10" data-name=" 10"><path class="cls-1" d="M816.6,674.8h34.7a26,26,0,0,1,26,26v34.7a26,26,0,0,1-26,26H816.6a26,26,0,0,1-26-26V700.8A26,26,0,0,1,816.6,674.8Z" transform="translate(3.5 3.5)"/></g><g id="_9" data-name=" 9"><path class="cls-1" d="M1197.5,967.9h34.7a26,26,0,0,1,26,26v34.7a26,26,0,0,1-26,26h-34.7a26,26,0,0,1-26-26V993.9A26,26,0,0,1,1197.5,967.9Z" transform="translate(3.5 3.5)"/></g><g id="_8" data-name=" 8"><path class="cls-1" d="M1197.5,780.4h34.7a26,26,0,0,1,26,26v34.7a26,26,0,0,1-26,26h-34.7a26,26,0,0,1-26-26V806.4A26,26,0,0,1,1197.5,780.4Z" transform="translate(3.5 3.5)"/></g><g id="_7" data-name=" 7"><path class="cls-1" d="M1306.5,967.9h34.7a26,26,0,0,1,26,26v34.7a26,26,0,0,1-26,26h-34.7a26,26,0,0,1-26-26V993.9A26,26,0,0,1,1306.5,967.9Z" transform="translate(3.5 3.5)"/></g><g id="_6" data-name=" 6"><path class="cls-1" d="M1306.5,780.4h34.7a26,26,0,0,1,26,26v34.7a26,26,0,0,1-26,26h-34.7a26,26,0,0,1-26-26V806.4A26,26,0,0,1,1306.5,780.4Z" transform="translate(3.5 3.5)"/></g><g id="_5" data-name=" 5"><path class="cls-1" d="M1577.5,967.9h34.7a26,26,0,0,1,26,26v34.7a26,26,0,0,1-26,26h-34.7a26,26,0,0,1-26-26V993.9A26,26,0,0,1,1577.5,967.9Z" transform="translate(3.5 3.5)"/></g><g id="_4" data-name=" 4"><path class="cls-1" d="M1578.6,779.9h34.7a26,26,0,0,1,26,26v34.7a26,26,0,0,1-26,26h-34.7a26,26,0,0,1-26-26V805.9A26,26,0,0,1,1578.6,779.9Z" transform="translate(3.5 3.5)"/></g><g id="_3" data-name=" 3"><path class="cls-1" d="M1688.4,967.9h34.7a26,26,0,0,1,26,26v34.7a26,26,0,0,1-26,26h-34.7a26,26,0,0,1-26-26V993.9A26,26,0,0,1,1688.4,967.9Z" transform="translate(3.5 3.5)"/></g><g id="_2" data-name=" 2"><path class="cls-1" d="M1689.8,779.7h34.7a26,26,0,0,1,26,26v34.7a26,26,0,0,1-26,26h-34.7a26,26,0,0,1-26-26V805.7A26,26,0,0,1,1689.8,779.7Z" transform="translate(3.5 3.5)"/></g><g id="_1" data-name=" 1"><path class="cls-1" d="M1631.6,678.3h34.7a26,26,0,0,1,26,26V739a26,26,0,0,1-26,26h-34.7a26,26,0,0,1-26-26V704.3A26.08,26.08,0,0,1,1631.6,678.3Z" transform="translate(3.5 3.5)"/></g><rect class="cls-2" x="202.9" y="3.5" width="1379.4" height="217.7"/><rect class="cls-2" x="3.5" y="3.5" width="199.4" height="765"/><rect class="cls-2" x="1582.3" y="3.5" width="540.6" height="457.3"/><rect class="cls-2" x="3.5" y="768.5" width="321" height="314"/><rect class="cls-3" x="564.5" y="221.2" width="96.8" height="188.8"/><rect class="cls-3" x="661.3" y="221.2" width="287.9" height="84.3"/><rect class="cls-4" x="1175" y="681.8" width="195.7" height="83.2"/><rect class="cls-4" x="1370.7" y="460.8" width="211.6" height="82.2"/><rect class="cls-4" x="949.2" y="460.8" width="211.6" height="82.2"/><rect class="cls-4" x="324.47" y="925.56" width="82.2" height="158.2"/><path class="cls-5" d="M1420.8,468.3h60.1v60.1h-60.1Z" transform="translate(3.5 3.5)"/><path class="cls-6" d="M1449,485a5,5,0,0,0-3.1,4.6v30.1a5,5,0,0,0,5,5H1491a5,5,0,0,0,5-5V489.6a5,5,0,0,0-5-5h-29.3l20.7-8.4-1.7-4.2Zm9.4,34.7a7.5,7.5,0,1,1,7.5-7.5A7.49,7.49,0,0,1,1458.4,519.7Zm32.6-20h-5v-5h-5v5h-30.1v-10H1491Z" transform="translate(3.5 3.5)"/><path class="cls-6" d="M1247.4,706.5a5,5,0,0,0-3.1,4.6v30.1a5,5,0,0,0,5,5h40.1a5,5,0,0,0,5-5V711.1a5,5,0,0,0-5-5h-29.3l20.7-8.4-1.7-4.2Zm9.4,34.7a7.5,7.5,0,1,1,7.5-7.5A7.49,7.49,0,0,1,1256.8,741.2Zm32.6-20h-5v-5h-5v5h-30.1v-10h40.1Z" transform="translate(3.5 3.5)"/><path class="cls-6" d="M340.2,987.7a5,5,0,0,0-3.1,4.6v30.1a5,5,0,0,0,5,5h40.1a5,5,0,0,0,5-5V992.3a5,5,0,0,0-5-5H352.9l20.7-8.4-1.7-4.2Zm9.4,34.7a7.5,7.5,0,1,1,7.5-7.5A7.49,7.49,0,0,1,349.6,1022.4Zm32.6-20h-5v-5h-5v5H342.1v-10h40.1Z" transform="translate(3.5 3.5)"/><path class="cls-5" d="M685,302.1h65.7v65.7H685Z" transform="translate(3.5 3.5)"/><path class="cls-6" d="M813.7,236.5H769.9v27.4a10.93,10.93,0,0,0,10.9,10.9h16.4a10.93,10.93,0,0,0,10.9-10.9v-8.2h5.5a5.55,5.55,0,0,0,5.5-5.5V242A5.4,5.4,0,0,0,813.7,236.5Zm0,13.7h-5.5V242h5.5Zm-43.8,30.1h43.8v5.5H769.9Z" transform="translate(3.5 3.5)"/><path class="cls-5" d="M581.2,429.1h56.4v56.4H581.2Z" transform="translate(3.5 3.5)"/><rect class="cls-7" x="566.1" y="408" width="94" height="80.9"/><path d="M623.8,421.5H595.6a4.69,4.69,0,0,0-4.7,4.7v37.6a4.69,4.69,0,0,0,4.7,4.7h28.2a4.69,4.69,0,0,0,4.7-4.7V426.2A4.69,4.69,0,0,0,623.8,421.5Zm0,42.3H595.6V442.6h28.2Zm0-25.9H595.6V426.1h28.2Zm-23.5-9.4H605v7.1h-4.7Zm0,16.5H605v11.8h-4.7Z" transform="translate(3.5 3.5)"/><rect class="cls-6" x="484.7" y="665.3" width="203.8" height="313"/></svg>